<svg xmlns="http://www.w3.org/2000/svg" xmlns:xlink="http://www.w3.org/1999/xlink" width="500" zoomAndPan="magnify" viewBox="0 0 375 374.999991" height="500" preserveAspectRatio="xMidYMid meet" version="1.0"><defs><g/></defs><g fill="#000000" fill-opacity="1"><g transform="translate(2.496098, 170.249989)"><g><path d="M 19.953125 -6.796875 C 21.109375 -6.796875 22.222656 -6.96875 23.296875 -7.3125 C 24.378906 -7.664062 25.175781 -8 25.6875 -8.3125 L 26.4375 -8.84375 L 29.640625 -2.4375 C 29.535156 -2.351562 29.390625 -2.242188 29.203125 -2.109375 C 29.015625 -1.984375 28.578125 -1.738281 27.890625 -1.375 C 27.210938 -1.019531 26.488281 -0.707031 25.71875 -0.4375 C 24.945312 -0.175781 23.929688 0.0546875 22.671875 0.265625 C 21.421875 0.484375 20.128906 0.59375 18.796875 0.59375 C 15.734375 0.59375 12.828125 -0.15625 10.078125 -1.65625 C 7.328125 -3.164062 5.113281 -5.238281 3.4375 -7.875 C 1.757812 -10.519531 0.921875 -13.375 0.921875 -16.4375 C 0.921875 -18.757812 1.410156 -20.984375 2.390625 -23.109375 C 3.378906 -25.242188 4.691406 -27.070312 6.328125 -28.59375 C 7.972656 -30.113281 9.890625 -31.328125 12.078125 -32.234375 C 14.265625 -33.140625 16.503906 -33.59375 18.796875 -33.59375 C 20.929688 -33.59375 22.898438 -33.335938 24.703125 -32.828125 C 26.503906 -32.328125 27.773438 -31.820312 28.515625 -31.3125 L 29.640625 -30.5625 L 26.4375 -24.15625 C 26.25 -24.320312 25.96875 -24.515625 25.59375 -24.734375 C 25.226562 -24.960938 24.484375 -25.265625 23.359375 -25.640625 C 22.242188 -26.015625 21.109375 -26.203125 19.953125 -26.203125 C 18.140625 -26.203125 16.515625 -25.90625 15.078125 -25.3125 C 13.640625 -24.726562 12.5 -23.957031 11.65625 -23 C 10.820312 -22.039062 10.179688 -21.003906 9.734375 -19.890625 C 9.296875 -18.785156 9.078125 -17.660156 9.078125 -16.515625 C 9.078125 -14.015625 10.015625 -11.769531 11.890625 -9.78125 C 13.773438 -7.789062 16.460938 -6.796875 19.953125 -6.796875 Z M 19.953125 -6.796875 "/></g></g></g><g fill="#000000" fill-opacity="1"><g transform="translate(32.613101, 170.249989)"><g><path d="M 14.5625 -33.59375 C 16.34375 -33.59375 18.085938 -33.332031 19.796875 -32.8125 C 21.503906 -32.300781 22.769531 -31.789062 23.59375 -31.28125 L 24.796875 -30.484375 L 21.765625 -24.484375 C 21.523438 -24.640625 21.191406 -24.84375 20.765625 -25.09375 C 20.335938 -25.351562 19.535156 -25.695312 18.359375 -26.125 C 17.179688 -26.550781 16.085938 -26.765625 15.078125 -26.765625 C 13.828125 -26.765625 12.859375 -26.492188 12.171875 -25.953125 C 11.492188 -25.421875 11.15625 -24.703125 11.15625 -23.796875 C 11.15625 -23.347656 11.316406 -22.925781 11.640625 -22.53125 C 11.960938 -22.144531 12.507812 -21.734375 13.28125 -21.296875 C 14.050781 -20.859375 14.726562 -20.503906 15.3125 -20.234375 C 15.90625 -19.972656 16.816406 -19.578125 18.046875 -19.046875 C 20.171875 -18.140625 21.988281 -16.90625 23.5 -15.34375 C 25.007812 -13.78125 25.765625 -12.015625 25.765625 -10.046875 C 25.765625 -8.148438 25.421875 -6.492188 24.734375 -5.078125 C 24.054688 -3.660156 23.125 -2.550781 21.9375 -1.75 C 20.75 -0.957031 19.4375 -0.367188 18 0.015625 C 16.5625 0.398438 15 0.59375 13.3125 0.59375 C 11.875 0.59375 10.460938 0.445312 9.078125 0.15625 C 7.691406 -0.132812 6.53125 -0.5 5.59375 -0.9375 C 4.664062 -1.375 3.828125 -1.804688 3.078125 -2.234375 C 2.328125 -2.660156 1.78125 -3.019531 1.4375 -3.3125 L 0.921875 -3.765625 L 4.6875 -10.078125 C 5 -9.816406 5.4375 -9.476562 6 -9.0625 C 6.5625 -8.644531 7.554688 -8.085938 8.984375 -7.390625 C 10.410156 -6.703125 11.671875 -6.359375 12.765625 -6.359375 C 15.929688 -6.359375 17.515625 -7.4375 17.515625 -9.59375 C 17.515625 -10.050781 17.398438 -10.472656 17.171875 -10.859375 C 16.953125 -11.242188 16.554688 -11.628906 15.984375 -12.015625 C 15.410156 -12.398438 14.898438 -12.707031 14.453125 -12.9375 C 14.015625 -13.164062 13.296875 -13.515625 12.296875 -13.984375 C 11.296875 -14.453125 10.554688 -14.804688 10.078125 -15.046875 C 8.078125 -16.023438 6.53125 -17.253906 5.4375 -18.734375 C 4.34375 -20.210938 3.796875 -21.804688 3.796875 -23.515625 C 3.796875 -26.472656 4.890625 -28.890625 7.078125 -30.765625 C 9.265625 -32.648438 11.757812 -33.59375 14.5625 -33.59375 Z M 14.5625 -33.59375 "/></g></g></g><g fill="#000000" fill-opacity="1"><g transform="translate(59.49043, 170.249989)"><g/></g></g><g fill="#000000" fill-opacity="1"><g transform="translate(70.40934, 170.249989)"><g><path d="M 0.3125 -26.40625 L 0.3125 -33 L 23.515625 -33 L 23.515625 -26.40625 L 15.6875 -26.40625 L 15.6875 0 L 8.15625 0 L 8.15625 -26.40625 Z M 0.3125 -26.40625 "/></g></g></g><g fill="#000000" fill-opacity="1"><g transform="translate(94.246969, 170.249989)"><g><path d="M 21.28125 -33 L 21.28125 -26.40625 L 9.921875 -26.40625 L 9.921875 -19.84375 L 20.796875 -19.84375 L 20.796875 -13.234375 L 9.921875 -13.234375 L 9.921875 -6.59375 L 21.28125 -6.59375 L 21.28125 0 L 2.40625 0 L 2.40625 -33 Z M 21.28125 -33 "/></g></g></g><g fill="#000000" fill-opacity="1"><g transform="translate(117.444668, 170.249989)"><g><path d="M 19.953125 -6.796875 C 21.109375 -6.796875 22.222656 -6.96875 23.296875 -7.3125 C 24.378906 -7.664062 25.175781 -8 25.6875 -8.3125 L 26.4375 -8.84375 L 29.640625 -2.4375 C 29.535156 -2.351562 29.390625 -2.242188 29.203125 -2.109375 C 29.015625 -1.984375 28.578125 -1.738281 27.890625 -1.375 C 27.210938 -1.019531 26.488281 -0.707031 25.71875 -0.4375 C 24.945312 -0.175781 23.929688 0.0546875 22.671875 0.265625 C 21.421875 0.484375 20.128906 0.59375 18.796875 0.59375 C 15.734375 0.59375 12.828125 -0.15625 10.078125 -1.65625 C 7.328125 -3.164062 5.113281 -5.238281 3.4375 -7.875 C 1.757812 -10.519531 0.921875 -13.375 0.921875 -16.4375 C 0.921875 -18.757812 1.410156 -20.984375 2.390625 -23.109375 C 3.378906 -25.242188 4.691406 -27.070312 6.328125 -28.59375 C 7.972656 -30.113281 9.890625 -31.328125 12.078125 -32.234375 C 14.265625 -33.140625 16.503906 -33.59375 18.796875 -33.59375 C 20.929688 -33.59375 22.898438 -33.335938 24.703125 -32.828125 C 26.503906 -32.328125 27.773438 -31.820312 28.515625 -31.3125 L 29.640625 -30.5625 L 26.4375 -24.15625 C 26.25 -24.320312 25.96875 -24.515625 25.59375 -24.734375 C 25.226562 -24.960938 24.484375 -25.265625 23.359375 -25.640625 C 22.242188 -26.015625 21.109375 -26.203125 19.953125 -26.203125 C 18.140625 -26.203125 16.515625 -25.90625 15.078125 -25.3125 C 13.640625 -24.726562 12.5 -23.957031 11.65625 -23 C 10.820312 -22.039062 10.179688 -21.003906 9.734375 -19.890625 C 9.296875 -18.785156 9.078125 -17.660156 9.078125 -16.515625 C 9.078125 -14.015625 10.015625 -11.769531 11.890625 -9.78125 C 13.773438 -7.789062 16.460938 -6.796875 19.953125 -6.796875 Z M 19.953125 -6.796875 "/></g></g></g><g fill="#000000" fill-opacity="1"><g transform="translate(147.561671, 170.249989)"><g><path d="M 9.921875 -13.234375 L 9.921875 0 L 2.40625 0 L 2.40625 -33 L 9.921875 -33 L 9.921875 -19.84375 L 20.5625 -19.84375 L 20.5625 -33 L 28.078125 -33 L 28.078125 0 L 20.5625 0 L 20.5625 -13.234375 Z M 9.921875 -13.234375 "/></g></g></g><g fill="#000000" fill-opacity="1"><g transform="translate(178.038647, 170.249989)"><g><path d="M 9.921875 -20.484375 L 9.921875 0 L 2.40625 0 L 2.40625 -33 L 9.921875 -33 L 23.046875 -12.515625 L 23.125 -12.515625 L 23.125 -33 L 30.640625 -33 L 30.640625 0 L 23.125 0 L 10 -20.484375 Z M 9.921875 -20.484375 "/></g></g></g><g fill="#000000" fill-opacity="1"><g transform="translate(211.075368, 170.249989)"><g><path d="M 0.921875 -16.515625 C 0.921875 -21.296875 2.546875 -25.335938 5.796875 -28.640625 C 9.054688 -31.941406 12.976562 -33.59375 17.5625 -33.59375 C 22.175781 -33.59375 26.09375 -31.945312 29.3125 -28.65625 C 32.539062 -25.363281 34.15625 -21.316406 34.15625 -16.515625 C 34.15625 -11.691406 32.566406 -7.632812 29.390625 -4.34375 C 26.222656 -1.050781 22.28125 0.59375 17.5625 0.59375 C 12.726562 0.59375 8.742188 -1.035156 5.609375 -4.296875 C 2.484375 -7.566406 0.921875 -11.640625 0.921875 -16.515625 Z M 9.046875 -16.515625 C 9.046875 -14.785156 9.3125 -13.207031 9.84375 -11.78125 C 10.375 -10.351562 11.304688 -9.144531 12.640625 -8.15625 C 13.972656 -7.175781 15.613281 -6.6875 17.5625 -6.6875 C 20.363281 -6.6875 22.476562 -7.644531 23.90625 -9.5625 C 25.332031 -11.476562 26.046875 -13.796875 26.046875 -16.515625 C 26.046875 -19.210938 25.316406 -21.523438 23.859375 -23.453125 C 22.410156 -25.390625 20.3125 -26.359375 17.5625 -26.359375 C 14.84375 -26.359375 12.742188 -25.390625 11.265625 -23.453125 C 9.785156 -21.523438 9.046875 -19.210938 9.046875 -16.515625 Z M 9.046875 -16.515625 "/></g></g></g><g fill="#000000" fill-opacity="1"><g transform="translate(246.151874, 170.249989)"><g><path d="M 9.921875 -33 L 9.921875 -6.59375 L 21.28125 -6.59375 L 21.28125 0 L 2.40625 0 L 2.40625 -33 Z M 9.921875 -33 "/></g></g></g><g fill="#000000" fill-opacity="1"><g transform="translate(268.749628, 170.249989)"><g><path d="M 0.921875 -16.515625 C 0.921875 -21.296875 2.546875 -25.335938 5.796875 -28.640625 C 9.054688 -31.941406 12.976562 -33.59375 17.5625 -33.59375 C 22.175781 -33.59375 26.09375 -31.945312 29.3125 -28.65625 C 32.539062 -25.363281 34.15625 -21.316406 34.15625 -16.515625 C 34.15625 -11.691406 32.566406 -7.632812 29.390625 -4.34375 C 26.222656 -1.050781 22.28125 0.59375 17.5625 0.59375 C 12.726562 0.59375 8.742188 -1.035156 5.609375 -4.296875 C 2.484375 -7.566406 0.921875 -11.640625 0.921875 -16.515625 Z M 9.046875 -16.515625 C 9.046875 -14.785156 9.3125 -13.207031 9.84375 -11.78125 C 10.375 -10.351562 11.304688 -9.144531 12.640625 -8.15625 C 13.972656 -7.175781 15.613281 -6.6875 17.5625 -6.6875 C 20.363281 -6.6875 22.476562 -7.644531 23.90625 -9.5625 C 25.332031 -11.476562 26.046875 -13.796875 26.046875 -16.515625 C 26.046875 -19.210938 25.316406 -21.523438 23.859375 -23.453125 C 22.410156 -25.390625 20.3125 -26.359375 17.5625 -26.359375 C 14.84375 -26.359375 12.742188 -25.390625 11.265625 -23.453125 C 9.785156 -21.523438 9.046875 -19.210938 9.046875 -16.515625 Z M 9.046875 -16.515625 "/></g></g></g><g fill="#000000" fill-opacity="1"><g transform="translate(303.826156, 170.249989)"><g><path d="M 32.234375 -18.484375 L 32.234375 -11.3125 C 31.378906 -7.394531 29.507812 -4.429688 26.625 -2.421875 C 23.75 -0.410156 20.539062 0.59375 17 0.59375 C 12.539062 0.59375 8.742188 -1.070312 5.609375 -4.40625 C 2.484375 -7.738281 0.921875 -11.765625 0.921875 -16.484375 C 0.921875 -21.285156 2.453125 -25.335938 5.515625 -28.640625 C 8.585938 -31.941406 12.414062 -33.59375 17 -33.59375 C 22.363281 -33.59375 26.601562 -31.710938 29.71875 -27.953125 L 24.796875 -22.5625 C 23.035156 -25.382812 20.582031 -26.796875 17.4375 -26.796875 C 15.113281 -26.796875 13.132812 -25.789062 11.5 -23.78125 C 9.863281 -21.769531 9.046875 -19.335938 9.046875 -16.484375 C 9.046875 -13.679688 9.863281 -11.285156 11.5 -9.296875 C 13.132812 -7.304688 15.113281 -6.3125 17.4375 -6.3125 C 19.351562 -6.3125 21.023438 -6.890625 22.453125 -8.046875 C 23.878906 -9.210938 24.59375 -10.757812 24.59375 -12.6875 L 17 -12.6875 L 17 -18.484375 Z M 32.234375 -18.484375 "/></g></g></g><g fill="#000000" fill-opacity="1"><g transform="translate(336.982846, 170.249989)"><g><path d="M 9.921875 -33 L 9.921875 0 L 2.40625 0 L 2.40625 -33 Z M 9.921875 -33 "/></g></g></g><g fill="#000000" fill-opacity="1"><g transform="translate(349.301632, 170.249989)"><g><path d="M 21.28125 -33 L 21.28125 -26.40625 L 9.921875 -26.40625 L 9.921875 -19.84375 L 20.796875 -19.84375 L 20.796875 -13.234375 L 9.921875 -13.234375 L 9.921875 -6.59375 L 21.28125 -6.59375 L 21.28125 0 L 2.40625 0 L 2.40625 -33 Z M 21.28125 -33 "/></g></g></g></svg>